<?xml version="1.0" encoding="UTF-8"?>
<svg id="Layer_1" xmlns="http://www.w3.org/2000/svg" version="1.1" viewBox="0 0 595.28 841.89">
  <!-- Generator: Adobe Illustrator 29.8.1, SVG Export Plug-In . SVG Version: 2.1.1 Build 2)  -->
  <defs>
    <style>
      .st0 {
        fill: #d5af34;
      }

      .st1 {
        fill: #a9822d;
      }
    </style>
  </defs>
  <path class="st0" d="M142.43,463.48c33.73,3.63,65.58,18.61,95.55,35.97,29.97,17.37,58.76,37.33,89.84,52.15,31.08,14.83,65.21,24.44,98.82,19.63,33.61-4.81,66.5-25.99,80.87-59.67-18.26,17.84-41.64,29.27-65.94,32.23-43.2,5.25-85.36-15.61-123-39.46-37.64-23.85-74.35-51.66-116.66-62.58-31.3-8.08-64.56-5.75-94.96,5.52-15.29,5.67-25.45,11.01-38.75,21.05-2.1,1.58-2.89,1.1-16.12,12.09,0,0,12.47.02,14.44-1.08,6.95-3.89,4.25-2.53,7.61-4.24,3.76-1.91,7.63-3.59,11.56-5.04,18.16-6.7,37.71-8.62,56.74-6.57Z"/>
  <path class="st0" d="M88.81,449.66c34.9-14.03,25.65-10.8,39.91-16.13,5.81-2.17,6.1-.77,17.37-6.12,4.08-1.94,4.71-8.53,6.15-13.4,5.2-17.51,10.4-35.03,15.6-52.54,5.76,19.82,11.52,39.64,17.28,59.46,1.21,4.16,2.49,8.46,5,11.62,5.09,6.41,13.31,6.14,20.57,6.85,14.34,1.39,28.27,8.42,39.28,19.82-19.11-52.72-38.23-105.43-57.34-158.15-7.5-20.69-15.33-41.16-23.58-61.41-20.03,44.22-43.34,86.19-69.55,125.2l17.04-5.39c-11.07,30.36-23.61,60.59-34.68,90.95,2.3-.24,4.71.16,6.94-.74Z"/>
  <path class="st1" d="M309.49,480.5"/>
  <path class="st1" d="M266.25,465.12c-11.35-15-14.18-18.49-17.66-27.76-4.26-11.34-7.16-16.64-11.42-27.97-7.65-20.39-1.14-3.03-8.79-23.42-1.92-5.12-18.02-47.98-19.94-53.1-.93-2.47-1.85-4.94-2.78-7.41-.6-1.59-3.79-6.29-2.23-6.82,6.71-2.27,9.02-3.04,11.36-3.39,4.88-.73,9.81-1.19,14.75-1.02,8.79.31,18.56-2.44,24.73,8.64,5.93,10.66,10.31,19.18,15.49,31.61,14.39,34.52,30.28,69,45.24,104.9,1.05,2.51,1.72,5.28,1.54,8.03-.15,2.34-1.05,4.54-1.93,6.68-2.37,5.74-4.74,11.48-7.11,17.22-16.71-9.22-25.47-15.36-41.24-26.2Z"/>
  <path class="st0" d="M429.75,520.34c-.14-2.15-.08-4.3.3-6.43.14-3.03.28-6.05.34-9.08.04-2.03.19-4.04.36-6.03,0,0,0,0,0,0-9.84-29.84-19.67-59.67-29.51-89.51l12.15.18c-15.62-27.19-31.24-54.39-46.86-81.58-3.18,7.62-6.61,15.12-10.29,22.46-6.48,12.95-13.72,25.45-21.66,37.39-2,3-4.04,5.97-6.12,8.9-1.37,1.92-5.29,5.58-5.29,8.12,0,6.29,12.42,3.42,15.4,3.17-10.36,27.79-20.72,55.58-31.08,83.38,14.98,3.79,28.9,12.52,39.49,24.76,8.17-21.32,16.34-42.64,24.51-63.97,7.04,23.27,14.09,46.53,21.13,69.8,1.09,3.59,2.21,7.26,4.31,10.26,5.89,8.43,17.08,8.99,26.76,8.79,2.14-.04,4.29-.09,6.43-.16-.72-6.81-.65-13.63-.36-20.46Z"/>
  <path class="st1" d="M506.22,319.97c-9.27.82-18.67,4.4-25.06,11.81-5.7,6.61-8.49,15.54-11.12,24.18-13.64,44.84-27.29,89.68-40.93,134.52-.48,4.5-.76,8.53-.83,13.09-.04,2.51-.04,4.46-.16,6.98-.04,1.38.07,2.68.05,3.46-.05,2.9-.32,3.7-.37,3.81-.09,1.67,1.01-3.32.06-.21.15,2.35-.01,7.84-.03,10.18-.03,5.37.17,8.79.09,13.19,5.22-.34,10.41-.94,15.48-2.28,8.9-2.34,17.57-7.03,23.37-14.8,4.66-6.25,7.19-14.05,9.63-21.67,19.18-59.92,38.36-119.84,57.54-179.76-9.17-1.67-18.46-3.34-27.73-2.52Z"/>
  <path class="st0" d="M241.85,582.02c1.48,3.88,3.07,7.92,6.02,10.62,4.34,3.97,10.52,4.11,16.18,4.05,15.81-.17,31.63-.35,47.44-.52-6.88-5.29-14.32-9.64-21.74-13.98-20.15-11.78-40.3-23.55-60.45-35.33.51.3,1.39,6.01,1.8,7.13,1.11,3.01,2.31,5.98,3.46,8.98,2.43,6.35,4.86,12.7,7.29,19.06Z"/>
  <path class="st1" d="M138.7,507.63c32.34,3.45,62.88,17.7,91.61,34.22,28.73,16.52,56.33,35.51,86.13,49.61,29.8,14.1,62.52,23.25,94.74,18.67,32.22-4.57,63.75-24.72,77.53-56.76-17.5,16.97-39.92,27.84-63.21,30.66-41.42,5-81.83-14.84-117.92-37.53-36.09-22.69-71.28-49.14-111.84-59.53-30.01-7.68-61.89-5.47-91.04,5.25-14.66,5.39-24.4,10.47-37.15,20.02-2.01,1.5-2.77,1.04-15.45,11.5,0,0,11.79-.46,13.84-1.02,3.36-.93,4.08-2.41,7.3-4.03,3.61-1.82,7.31-3.42,11.08-4.8,17.41-6.37,36.16-8.2,54.4-6.25Z"/>
  <path class="st1" d="M172.58,416.89l-8.82.5c-2.47.14-4.58-1.94-4.71-4.66h0c-.13-2.72,1.77-5.03,4.25-5.17l8.82-.5c2.47-.14,4.58,1.94,4.71,4.66h0c.13,2.72-1.77,5.03-4.25,5.17Z"/>
</svg>