<?xml version="1.0" encoding="UTF-8"?>
<svg id="Layer_1" xmlns="http://www.w3.org/2000/svg" version="1.1" viewBox="0 0 1920 1080">
  <!-- Generator: Adobe Illustrator 29.8.1, SVG Export Plug-In . SVG Version: 2.1.1 Build 2)  -->
  <defs>
    <style>
      .st0 {
        fill: #d5af33;
      }

      .st1 {
        fill: #a9812d;
      }
    </style>
  </defs>
  <path class="st0" d="M466.1,613.54c87.74,8.55,170.61,43.86,248.58,84.79,77.97,40.93,152.85,87.97,233.71,122.92,80.86,34.94,169.65,57.6,257.08,46.27,87.43-11.33,172.99-61.25,210.37-140.64-47.49,42.05-108.32,68.99-171.53,75.96-112.38,12.38-222.05-36.78-319.97-93-97.92-56.22-193.41-121.76-303.48-147.5-81.42-19.04-167.95-13.55-247.04,13.01-39.79,13.36-66.2,25.94-100.81,49.61-5.45,3.73-7.53,2.59-41.94,28.49,0,0,32.45.05,37.56-2.54,18.09-9.17,11.07-5.97,19.8-9.99,9.79-4.51,19.84-8.46,30.07-11.88,47.24-15.79,98.11-20.31,147.6-15.48Z"/>
  <path class="st0" d="M326.63,580.99c90.79-33.06,66.72-25.45,103.83-38.01,15.12-5.12,15.87-1.82,45.18-14.43,10.62-4.57,12.24-20.11,16.01-31.59,13.53-41.28,27.06-82.56,40.59-123.84,14.98,46.71,29.97,93.43,44.95,140.14,3.15,9.81,6.47,19.94,13,27.38,13.25,15.1,34.64,14.48,53.51,16.14,37.29,3.28,73.56,19.85,102.2,46.71-49.73-124.25-99.45-248.49-149.18-372.74-19.52-48.77-39.87-97-61.33-144.74-52.1,104.23-112.75,203.13-180.93,295.08l44.34-12.71c-28.8,71.55-61.42,142.82-90.22,214.37,5.98-.56,12.25.37,18.07-1.75Z"/>
  <path class="st1" d="M900.7,653.67"/>
  <path class="st1" d="M788.21,617.43c-29.54-35.35-36.9-43.59-45.95-65.42-11.07-26.72-18.63-39.21-29.7-65.93-19.91-48.05-2.96-7.15-22.88-55.2-5-12.07-46.87-113.09-51.87-125.16-2.41-5.82-4.82-11.64-7.23-17.45-1.55-3.75-9.86-14.82-5.81-16.06,17.46-5.35,23.46-7.16,29.54-7.99,12.71-1.72,25.53-2.81,38.36-2.4,22.86.72,48.3-5.74,64.34,20.37,15.43,25.13,26.82,45.21,40.3,74.5,37.45,81.37,78.77,162.62,117.69,247.24,2.72,5.91,4.48,12.45,4.01,18.94-.4,5.52-2.73,10.69-5.03,15.74-6.17,13.53-12.33,27.06-18.5,40.59-43.47-21.74-66.26-36.2-107.28-61.76Z"/>
  <path class="st0" d="M1213.57,747.58c-.37-5.07-.22-10.12.77-15.15.37-7.13.73-14.27.88-21.4.11-4.79.48-9.51.94-14.22,0,0,0,0,0,0-25.59-70.32-51.18-140.64-76.77-210.96l31.6.43c-40.64-64.09-81.27-128.18-121.91-192.27-8.27,17.96-17.21,35.63-26.78,52.94-16.87,30.53-35.7,59.98-56.34,88.12-5.19,7.08-10.5,14.07-15.91,20.98-3.55,4.53-13.77,13.15-13.77,19.15,0,14.83,32.3,8.07,40.06,7.48-26.95,65.5-53.9,131.01-80.85,196.51,38.98,8.94,75.18,29.51,102.72,58.35,21.25-50.25,42.51-100.51,63.76-150.76,18.33,54.83,36.65,109.67,54.98,164.5,2.83,8.47,5.75,17.11,11.21,24.19,15.32,19.87,44.42,21.18,69.61,20.72,5.57-.1,11.15-.22,16.73-.39-1.88-16.05-1.69-32.12-.93-48.21Z"/>
  <path class="st1" d="M1412.48,275.32c-24.11,1.93-48.57,10.36-65.19,27.83-14.84,15.58-22.08,36.64-28.92,56.99-35.49,105.69-70.99,211.37-106.49,317.06-1.25,10.6-1.97,20.1-2.15,30.86-.1,5.91-.09,10.51-.41,16.45-.1,3.26.17,6.31.14,8.16-.13,6.83-.84,8.73-.96,8.97-.23,3.93,2.63-7.81.17-.48.4,5.53-.04,18.48-.08,24-.09,12.65.43,20.72.23,31.09,13.57-.79,27.07-2.22,40.28-5.36,23.16-5.52,45.7-16.57,60.79-34.89,12.13-14.73,18.7-33.1,25.05-51.07,49.89-141.22,99.79-282.45,149.68-423.67-23.87-3.92-48.02-7.86-72.13-5.93Z"/>
  <path class="st0" d="M724.73,892.95c3.86,9.15,7.99,18.67,15.65,25.02,11.3,9.37,27.38,9.68,42.09,9.54,41.14-.41,82.28-.82,123.42-1.22-17.9-12.48-37.25-22.73-56.54-32.95-52.42-27.76-104.83-55.51-157.25-83.27,1.34.71,3.61,14.16,4.69,16.8,2.89,7.09,6.01,14.1,8.99,21.16,6.32,14.97,12.64,29.94,18.95,44.92Z"/>
  <path class="st1" d="M456.4,717.61c84.12,8.13,163.57,41.72,238.32,80.65,74.75,38.93,146.54,83.68,224.06,116.92,77.52,33.24,162.65,54.79,246.47,44.01,83.82-10.77,165.85-58.26,201.68-133.78-45.53,40-103.85,65.63-164.45,72.25-107.74,11.78-212.88-34.99-306.76-88.46-93.88-53.48-185.43-115.83-290.95-140.31-78.06-18.11-161.02-12.89-236.84,12.38-38.15,12.71-63.47,24.67-96.65,47.19-5.23,3.55-7.21,2.46-40.2,27.1,0,0,30.68-1.08,36.01-2.41,8.75-2.19,10.61-5.68,18.98-9.5,9.39-4.29,19.02-8.05,28.83-11.3,45.29-15.02,94.06-19.32,141.51-14.73Z"/>
  <path class="st1" d="M544.54,503.75l-22.93,1.19c-6.44.33-11.93-4.58-12.26-10.98h0c-.34-6.4,4.61-11.86,11.05-12.19l22.93-1.19c6.44-.33,11.93,4.58,12.26,10.98h0c.34,6.4-4.61,11.86-11.05,12.19Z"/>
</svg>